<?xml version="1.0" standalone="no"?>
<!DOCTYPE svg PUBLIC "-//W3C//DTD SVG 20010904//EN"
 "http://www.w3.org/TR/2001/REC-SVG-20010904/DTD/svg10.dtd">
<svg version="1.0" xmlns="http://www.w3.org/2000/svg"
 width="584.000000pt" height="487.000000pt" viewBox="0 0 584.000000 487.000000"
 preserveAspectRatio="xMidYMid meet">

<g transform="translate(0.000000,487.000000) scale(0.100000,-0.100000)"
fill="#ffffff" stroke="none">
<path d="M2896 4778 c-8 -13 -27 -49 -42 -80 l-28 -57 -45 75 c-35 57 -50 74
-68 74 -13 0 -23 -5 -23 -11 0 -7 25 -51 55 -99 50 -79 55 -93 55 -143 0 -58
7 -71 34 -61 12 5 16 20 16 62 0 47 7 69 50 149 28 51 50 98 50 103 0 19 -40
10 -54 -12z"/>
<path d="M3100 4786 c0 -2 -9 -68 -21 -146 -11 -78 -18 -148 -15 -156 3 -8 14
-14 24 -14 17 0 21 13 32 108 l13 107 36 -115 c47 -148 54 -149 138 -20 35 52
63 88 63 80 0 -8 -6 -54 -14 -102 -7 -49 -10 -90 -8 -93 14 -14 42 -3 47 18
13 58 36 269 31 282 -14 37 -43 11 -115 -102 -45 -70 -77 -111 -80 -102 -3 8
-23 68 -46 134 -34 102 -43 120 -62 123 -13 2 -23 1 -23 -2z"/>
<path d="M2545 4769 c-118 -16 -125 -19 -125 -39 0 -24 21 -25 150 -7 76 11
85 14 88 35 4 25 -7 26 -113 11z"/>
<path d="M2342 4732 c-19 -3 -23 -8 -18 -25 3 -12 18 -80 32 -150 27 -126 41
-154 66 -129 8 8 3 48 -17 144 -35 165 -35 164 -63 160z"/>
<path d="M2537 4702 c-15 -3 -18 -10 -14 -35 3 -18 11 -74 18 -124 10 -80 14
-93 31 -93 10 0 21 6 24 14 7 17 -24 228 -34 237 -4 3 -15 4 -25 1z"/>
<path d="M2113 4669 c-41 -13 -63 -25 -63 -35 0 -23 21 -26 75 -9 73 22 94 20
106 -11 14 -39 2 -62 -39 -74 -54 -15 -58 -13 -68 22 -10 34 -22 42 -43 29
-21 -13 47 -241 72 -241 26 0 29 19 13 74 -17 57 -16 62 20 69 23 4 35 -3 74
-46 40 -44 50 -49 73 -43 l28 7 -48 54 c-26 30 -52 55 -56 55 -4 0 2 13 13 29
19 25 20 33 10 69 -12 46 -42 72 -80 71 -14 0 -53 -10 -87 -20z"/>
<path d="M3510 4564 c-55 -69 -100 -130 -100 -134 0 -4 9 -10 20 -13 15 -4 27
4 45 28 l26 33 57 -18 c54 -17 57 -20 67 -60 7 -30 17 -45 33 -51 19 -7 22 -5
22 14 -1 45 -30 308 -35 318 -15 24 -42 0 -135 -117z m107 -70 c-4 -4 -67 15
-76 22 -2 2 11 26 30 53 l34 49 8 -60 c4 -33 6 -62 4 -64z"/>
<path d="M1948 4610 c-15 -9 -12 -21 29 -115 51 -117 51 -145 3 -170 -38 -20
-73 -19 -93 3 -8 9 -34 61 -57 114 -40 92 -43 96 -65 86 -26 -12 -28 -5 38
-149 53 -117 103 -142 194 -98 46 22 73 61 73 103 0 26 -88 236 -99 236 -3 0
-14 -5 -23 -10z"/>
<path d="M3807 4593 c-26 -50 -107 -242 -107 -251 0 -13 32 -25 40 -15 6 7 32
65 76 169 l17 39 29 -140 c27 -129 42 -165 69 -165 3 0 34 64 68 142 58 133
61 143 45 155 -10 7 -21 10 -25 6 -4 -5 -27 -54 -51 -111 l-45 -103 -28 138
c-25 127 -40 163 -67 163 -4 0 -14 -12 -21 -27z"/>
<path d="M1581 4424 c-59 -30 -91 -72 -91 -120 0 -46 69 -154 114 -177 33 -17
42 -18 79 -7 54 16 94 44 112 80 18 34 19 49 5 85 -8 22 -13 24 -31 15 -16 -9
-19 -17 -14 -41 6 -24 1 -34 -24 -58 -62 -58 -108 -48 -161 37 -46 73 -38 107
32 143 41 21 43 21 75 4 27 -15 35 -16 48 -5 20 16 4 37 -42 57 -42 17 -40 17
-102 -13z"/>
<path d="M4094 4334 c-155 -112 -152 -109 -125 -124 18 -9 27 -7 50 10 37 26
38 26 95 -10 48 -31 48 -31 42 -73 -6 -36 -3 -44 15 -55 11 -7 22 -12 24 -10
8 10 56 321 51 333 -3 8 -11 15 -19 15 -7 0 -67 -39 -133 -86z m102 -1 c-4 -9
-10 -36 -13 -60 -3 -24 -7 -43 -9 -43 -1 0 -19 10 -40 22 l-37 22 44 37 c48
42 65 48 55 22z"/>
<path d="M1325 4244 c-38 -31 -71 -59 -73 -63 -1 -5 4 -14 12 -20 12 -11 27
-3 86 45 46 37 69 62 65 71 -3 8 -5 17 -5 19 0 12 -22 -1 -85 -52z"/>
<path d="M4313 4215 c-77 -80 -91 -130 -53 -192 24 -41 64 -66 101 -66 23 0
26 -3 17 -14 -6 -7 -9 -15 -7 -16 2 -1 11 -8 20 -15 13 -10 24 -2 69 54 29 35
51 66 49 68 -2 1 -25 19 -50 39 -41 33 -48 35 -59 22 -11 -13 -8 -21 16 -46
28 -30 28 -31 10 -45 -31 -22 -62 -17 -100 20 -48 45 -47 72 7 138 55 68 88
74 141 28 27 -24 36 -40 36 -64 0 -30 15 -56 31 -56 4 0 12 14 18 30 25 74
-66 170 -161 170 -26 0 -42 -11 -85 -55z"/>
<path d="M1415 4146 l-40 -34 -26 24 c-22 21 -27 22 -44 10 -18 -13 -15 -18
50 -97 38 -46 74 -90 81 -98 10 -11 25 -3 89 49 69 56 75 64 61 78 -13 14 -21
11 -72 -29 l-57 -43 -29 34 -29 35 23 19 c13 10 33 26 46 36 14 11 20 24 16
34 -9 24 -24 20 -69 -18z"/>
<path d="M1118 4061 c-53 -49 -58 -95 -13 -141 40 -42 79 -40 134 6 37 32 45
35 67 26 33 -15 32 -61 -1 -92 -19 -18 -32 -22 -58 -17 -33 5 -57 -6 -57 -25
0 -5 14 -15 32 -22 42 -18 77 -5 123 45 46 51 48 98 6 140 -41 41 -80 39 -130
-6 -43 -40 -61 -43 -84 -17 -22 24 -21 34 4 66 16 21 28 26 55 24 42 -3 63 14
44 37 -24 29 -77 19 -122 -24z"/>
<path d="M4640 4075 c-12 -14 -5 -25 53 -83 60 -59 68 -65 82 -51 13 13 8 22
-53 82 -61 61 -70 66 -82 52z"/>
<path d="M4524 3961 l-91 -87 68 -71 c63 -66 69 -70 83 -54 14 16 12 21 -34
66 l-50 49 32 33 32 33 43 -42 c35 -35 44 -39 57 -28 14 11 11 18 -24 60 -39
47 -39 47 -20 65 23 21 24 26 8 48 -12 14 -24 6 -104 -72z"/>
<path d="M4718 3807 c-106 -78 -125 -95 -117 -109 5 -10 13 -18 18 -18 4 0 44
27 89 60 l82 60 -56 -106 c-73 -136 -70 -140 71 -113 55 11 109 22 120 25 11
4 -19 -22 -67 -57 -88 -62 -98 -75 -77 -96 9 -9 40 9 123 69 137 99 138 101
130 121 -8 22 -33 21 -176 -7 l-117 -22 41 75 c23 42 51 95 64 118 27 47 30
66 11 81 -9 8 -45 -13 -139 -81z"/>
<path d="M910 3835 c-7 -8 -11 -17 -9 -19 2 -2 44 -34 94 -70 l89 -66 -140 0
c-125 0 -143 -2 -158 -19 -16 -18 -12 -22 109 -111 104 -76 128 -90 140 -80 8
7 15 15 15 19 0 4 -39 36 -87 71 -49 35 -91 66 -95 69 -4 3 59 5 140 3 138 -3
148 -2 159 17 12 19 4 27 -103 107 -64 47 -122 88 -128 90 -7 3 -19 -2 -26
-11z"/>
<path d="M5061 3541 c-10 -7 -4 -25 30 -90 44 -81 52 -88 77 -72 11 7 4 25
-31 87 -46 82 -53 89 -76 75z"/>
<path d="M743 3533 c-31 -6 -90 -75 -102 -119 -20 -73 7 -117 101 -165 81 -41
121 -39 168 9 69 68 74 167 12 211 -66 46 -137 71 -179 64z m107 -80 c26 -15
53 -35 59 -46 26 -41 -26 -137 -75 -137 -35 0 -121 46 -140 75 -13 20 -14 30
-5 58 27 80 79 96 161 50z"/>
<path d="M4922 3462 c-57 -31 -103 -61 -103 -67 1 -13 84 -165 91 -165 3 0 12
5 20 10 13 8 11 18 -15 66 -16 32 -31 61 -33 65 -3 8 56 49 70 49 4 0 19 -22
33 -50 27 -53 31 -56 55 -40 13 8 11 17 -14 61 -27 49 -28 53 -11 65 10 7 22
15 28 17 10 3 0 47 -11 47 -4 0 -54 -26 -110 -58z"/>
<path d="M5068 3262 c-76 -31 -137 -60 -138 -64 -1 -29 1 -38 10 -38 6 0 58
20 115 44 58 24 102 39 98 33 -4 -7 -40 -63 -79 -126 -58 -92 -71 -118 -63
-133 5 -10 13 -18 17 -18 8 0 274 108 279 114 2 2 0 12 -4 24 -8 20 -11 19
-116 -23 -60 -24 -107 -41 -105 -37 2 4 35 59 75 123 53 84 71 120 67 137 -4
12 -9 22 -13 21 -3 0 -68 -26 -143 -57z"/>
<path d="M561 3241 c-13 -24 -14 -23 149 -94 131 -57 130 -56 140 -31 8 20 -1
26 -122 79 -71 31 -136 59 -143 61 -8 3 -18 -4 -24 -15z"/>
<path d="M524 3157 c-2 -7 -19 -58 -38 -114 -29 -85 -32 -102 -19 -107 29 -11
33 -5 64 97 18 56 34 107 36 113 2 6 -5 14 -17 17 -12 3 -23 0 -26 -6z"/>
<path d="M555 3052 c-3 -3 -5 -13 -5 -23 0 -14 26 -26 115 -55 63 -21 116 -36
119 -34 2 3 6 14 8 24 3 17 -14 25 -114 57 -64 20 -120 34 -123 31z"/>
<path d="M5301 3011 c-11 -7 -9 -27 15 -120 26 -100 31 -111 51 -111 28 0 28
-2 4 85 -11 39 -24 89 -31 113 -11 44 -16 48 -39 33z"/>
<path d="M5163 2877 c-62 -17 -113 -36 -113 -42 1 -40 33 -37 233 21 19 6 21
46 2 49 -5 2 -61 -11 -122 -28z"/>
<path d="M563 2842 c-190 -34 -190 -36 -7 -160 75 -51 138 -91 139 -90 1 2 5
13 9 24 5 18 0 26 -29 44 -33 20 -35 24 -29 58 16 83 18 86 62 95 23 4 42 12
42 17 0 4 3 15 6 24 8 21 -14 20 -193 -12z m46 -79 c-6 -21 -11 -41 -12 -45
-3 -10 -89 47 -88 58 0 5 17 12 38 15 75 12 72 13 62 -28z"/>
<path d="M5293 2630 c-31 -13 -43 -41 -43 -102 0 -56 -12 -78 -41 -78 -30 0
-49 29 -49 75 0 35 4 45 20 50 13 4 20 15 20 32 0 22 -3 24 -27 19 -42 -10
-63 -41 -63 -92 0 -94 48 -144 125 -130 48 9 65 38 65 113 0 60 1 63 27 69 52
13 85 -67 43 -103 -28 -24 -26 -53 3 -53 47 0 72 57 57 125 -15 69 -74 100
-137 75z"/>
<path d="M379 2586 c-1 -9 -2 -21 -3 -26 -1 -6 54 -41 122 -79 l122 -68 -53
-21 c-173 -66 -207 -83 -207 -107 0 -22 5 -23 83 -29 45 -4 115 -9 155 -12 72
-6 72 -6 72 18 0 24 -4 25 -67 31 -38 4 -86 7 -108 7 -36 1 -30 5 70 44 131
51 143 69 73 109 -24 13 -68 39 -98 56 l-55 32 103 -6 102 -7 0 25 c0 25 -1
25 -107 31 -60 4 -129 9 -155 12 -39 5 -48 3 -49 -10z"/>
<path d="M5345 2335 c-84 -51 -94 -55 -152 -55 l-63 0 0 -31 0 -32 55 7 c53 6
58 4 153 -49 54 -30 102 -55 105 -55 4 0 7 9 7 19 0 24 -30 48 -98 80 -29 14
-52 27 -52 30 0 3 32 23 70 44 63 33 70 41 70 67 0 17 -1 30 -2 30 -2 -1 -43
-25 -93 -55z"/>
<path d="M1840 2225 l0 -85 1065 0 1065 0 0 85 0 85 -1065 0 -1065 0 0 -85z"/>
<path d="M600 2180 l-64 -38 -19 24 c-25 32 -86 33 -121 2 -27 -24 -31 -43
-28 -140 2 -55 3 -58 28 -58 l26 0 -7 70 c-8 80 1 100 44 100 38 0 51 -17 51
-66 0 -41 -1 -42 -40 -48 -40 -6 -45 -12 -34 -40 6 -15 52 -15 202 0 48 5 53
8 50 27 -3 20 -8 22 -65 19 l-63 -3 0 35 c0 33 4 38 60 68 45 25 60 39 60 55
0 12 -3 24 -8 26 -4 3 -36 -12 -72 -33z"/>
<path d="M5157 2099 c-26 -15 -47 -70 -47 -119 0 -116 161 -139 184 -27 3 15
8 38 11 52 4 19 12 25 33 25 15 0 33 -5 40 -12 24 -24 7 -98 -22 -98 -13 0
-26 -20 -26 -41 0 -15 47 -10 69 9 25 19 42 83 34 123 -8 43 -48 74 -93 74
-48 0 -78 -26 -85 -74 -10 -60 -22 -81 -48 -81 -33 0 -47 18 -47 61 0 39 20
69 46 69 8 0 14 10 14 25 0 19 -5 25 -22 25 -13 0 -31 -5 -41 -11z"/>
<path d="M520 1921 c-74 -15 -120 -61 -120 -120 0 -96 49 -161 120 -161 64 0
139 20 169 46 54 45 49 157 -9 216 -24 23 -36 28 -77 27 -26 -1 -64 -4 -83 -8z
m129 -60 c23 -23 36 -79 26 -110 -10 -33 -46 -51 -116 -57 -57 -6 -66 -4 -83
15 -11 12 -21 41 -23 68 -4 39 -1 51 16 67 41 37 150 47 180 17z"/>
<path d="M1840 1616 l0 -276 178 0 c206 0 261 11 322 66 58 53 73 101 68 227
-3 98 -5 108 -33 149 -21 30 -48 52 -90 73 -59 30 -62 30 -252 34 l-193 3 0
-276z m399 166 c60 -30 76 -62 79 -160 3 -78 1 -91 -20 -121 -43 -64 -76 -76
-230 -79 l-138 -4 0 191 0 191 138 0 c111 0 144 -3 171 -18z"/>
<path d="M2590 1615 l0 -275 45 0 45 0 0 207 0 208 208 -208 207 -207 48 0 47
0 0 275 0 275 -45 0 -45 0 0 -212 0 -213 -213 213 c-210 209 -213 212 -255
212 l-42 0 0 -275z"/>
<path d="M3350 1885 c0 -3 61 -127 135 -275 l135 -270 38 0 37 0 138 275 137
275 -49 0 -50 0 -104 -212 -104 -213 -106 213 -107 212 -50 0 c-28 0 -50 -2
-50 -5z"/>
<path d="M5341 1711 c-13 -60 -20 -114 -16 -120 11 -19 34 -12 40 12 14 64 45
207 45 212 0 3 -11 5 -23 5 -22 0 -25 -8 -46 -109z"/>
<path d="M5076 1767 c-3 -12 -3 -23 -1 -26 6 -5 204 -50 226 -51 19 0 33 39
16 45 -7 3 -62 15 -124 29 l-111 24 -6 -21z"/>
<path d="M5012 1531 c-17 -49 -28 -92 -24 -95 3 -3 13 -6 22 -6 12 0 22 18 35
60 10 34 22 63 27 66 14 9 78 -16 78 -31 0 -7 -7 -32 -15 -55 -16 -46 -13 -60
14 -60 13 0 22 13 31 48 17 61 21 65 55 52 31 -12 30 -13 39 17 6 20 -1 24
-103 57 -61 20 -115 36 -120 36 -5 0 -23 -40 -39 -89z"/>
<path d="M608 1603 c-15 -4 -15 -8 3 -60 10 -31 19 -60 19 -64 0 -4 -16 -13
-35 -19 -34 -11 -42 -24 -27 -46 8 -12 233 54 239 71 1 6 -1 17 -7 25 -7 12
-16 12 -65 -4 -31 -10 -58 -16 -60 -14 -1 2 -10 29 -19 61 -9 31 -20 56 -24
56 -4 -1 -15 -3 -24 -6z"/>
<path d="M467 1572 c-10 -2 -17 -9 -14 -15 2 -7 16 -49 31 -93 23 -70 30 -81
46 -77 11 3 20 8 20 11 0 16 -51 172 -58 175 -4 2 -15 2 -25 -1z"/>
<path d="M5295 1528 c-30 -82 -54 -162 -49 -169 3 -5 13 -9 23 -9 24 0 78 170
58 182 -17 11 -27 10 -32 -4z"/>
<path d="M673 1367 c-73 -34 -133 -65 -133 -68 0 -3 6 -13 13 -22 11 -15 21
-12 115 33 56 27 102 47 102 45 0 -1 -31 -58 -69 -126 -54 -95 -67 -127 -61
-143 4 -12 12 -20 17 -19 25 5 268 124 271 132 2 6 0 17 -5 25 -7 13 -25 7
-112 -34 -57 -28 -105 -50 -106 -50 -2 0 28 55 66 123 68 119 80 160 49 164
-8 1 -75 -26 -147 -60z"/>
<path d="M4960 1390 c-10 -18 -2 -24 85 -67 l95 -48 -111 3 c-104 4 -139 -3
-139 -28 0 -4 32 -47 70 -95 39 -48 70 -89 70 -91 0 -2 -41 16 -91 42 -72 36
-94 43 -100 32 -5 -7 -9 -18 -9 -23 0 -6 61 -41 136 -78 106 -53 139 -65 145
-55 15 23 10 40 -24 82 -18 23 -56 70 -84 106 l-51 65 143 -3 c139 -3 144 -2
150 18 4 12 5 23 3 25 -6 5 -268 135 -273 135 -2 0 -9 -9 -15 -20z"/>
<path d="M823 1072 c-126 -74 -131 -78 -119 -100 12 -22 13 -22 149 59 122 72
136 83 127 100 -6 10 -14 19 -18 19 -4 0 -66 -35 -139 -78z"/>
<path d="M1664 425 c-90 -46 -57 -175 44 -175 57 0 72 -8 72 -39 0 -37 -17
-51 -61 -51 -35 0 -69 20 -69 41 0 5 -11 9 -25 9 -29 0 -31 -10 -10 -50 29
-56 143 -66 192 -17 18 17 24 35 25 67 1 60 -33 90 -101 90 -49 0 -71 12 -71
41 0 47 88 70 110 29 6 -12 21 -20 36 -20 22 0 24 3 19 23 -12 37 -38 56 -85
62 -31 4 -55 1 -76 -10z"/>
<path d="M1963 430 c-17 -6 -43 -24 -57 -41 -23 -27 -26 -39 -26 -112 0 -63 4
-89 19 -113 48 -78 205 -67 248 17 17 33 16 142 -1 184 -8 18 -25 41 -38 49
-31 20 -104 28 -145 16z m125 -64 c11 -11 18 -39 20 -85 4 -64 2 -72 -21 -95
-20 -20 -36 -26 -72 -26 -69 0 -85 22 -85 114 0 69 2 76 28 96 21 17 36 21 71
17 23 -3 50 -12 59 -21z"/>
<path d="M2824 429 c-16 -5 -41 -20 -55 -35 -22 -23 -24 -34 -24 -121 0 -94 0
-95 32 -123 58 -52 153 -52 205 0 37 37 39 80 3 80 -18 0 -25 -5 -25 -19 0
-51 -102 -70 -145 -26 -21 21 -25 33 -25 88 0 80 18 106 75 113 48 6 89 -13
93 -44 5 -33 52 -31 52 2 0 68 -95 112 -186 85z"/>
<path d="M3193 426 c-53 -24 -74 -86 -28 -86 15 0 25 6 25 15 0 35 83 46 103
14 19 -30 -1 -64 -68 -113 -70 -52 -85 -71 -85 -110 l0 -26 110 0 c103 0 110
1 110 20 0 19 -7 20 -92 20 l-92 0 44 33 c24 17 63 49 87 71 38 34 43 44 43
81 0 31 -6 47 -24 64 -30 28 -91 36 -133 17z"/>
<path d="M3680 422 c-48 -24 -60 -53 -60 -154 0 -83 2 -90 29 -120 27 -31 34
-33 91 -33 56 0 64 3 90 31 32 36 46 107 35 176 -9 57 -29 87 -70 104 -45 18
-73 18 -115 -4z m110 -52 c17 -17 20 -33 20 -97 0 -89 -14 -113 -67 -113 -56
0 -73 27 -73 115 0 86 18 115 70 115 17 0 39 -9 50 -20z"/>
<path d="M3970 422 c-51 -25 -61 -52 -58 -159 3 -86 5 -95 31 -120 24 -24 35
-28 86 -28 49 0 64 4 85 24 34 32 50 92 43 164 -6 69 -27 104 -72 123 -45 18
-73 18 -115 -4z m108 -48 c20 -13 22 -24 22 -96 0 -95 -13 -118 -67 -118 -56
0 -73 27 -73 115 0 62 4 79 20 95 24 24 67 26 98 4z"/>
<path d="M1500 275 l0 -155 25 0 25 0 0 155 0 155 -25 0 -25 0 0 -155z"/>
<path d="M2316 422 c-4 -6 -60 -145 -127 -315 l-19 -47 23 0 c21 0 31 19 90
167 36 93 69 176 73 186 5 13 1 17 -14 17 -12 0 -23 -3 -26 -8z"/>
<path d="M2390 275 l0 -155 25 0 25 0 0 155 0 155 -25 0 -25 0 0 -155z"/>
<path d="M2510 410 c0 -19 7 -20 95 -20 88 0 95 1 95 20 0 19 -7 20 -95 20
-88 0 -95 -1 -95 -20z"/>
<path d="M3390 410 c0 -18 7 -20 75 -20 l74 0 -30 -52 c-33 -56 -109 -204
-109 -213 0 -3 11 -5 25 -5 22 0 33 16 95 140 38 77 70 147 70 155 0 12 -17
15 -100 15 -93 0 -100 -1 -100 -20z"/>
<path d="M4256 405 c-9 -14 -27 -27 -41 -31 -15 -4 -25 -13 -25 -24 0 -27 13
-31 43 -15 l27 14 0 -115 0 -114 25 0 25 0 0 155 c0 145 -1 155 -19 155 -10 0
-26 -11 -35 -25z"/>
<path d="M2510 246 l0 -126 95 0 c88 0 95 1 95 20 0 18 -7 20 -70 20 l-70 0 0
45 0 44 58 3 c50 3 57 6 60 26 3 21 0 22 -57 22 l-60 0 -3 33 c-2 24 -8 33
-25 35 -23 3 -23 2 -23 -122z"/>
</g>
</svg>
