<?xml version="1.0" standalone="no"?>
<!DOCTYPE svg PUBLIC "-//W3C//DTD SVG 20010904//EN"
 "http://www.w3.org/TR/2001/REC-SVG-20010904/DTD/svg10.dtd">
<svg version="1.0" xmlns="http://www.w3.org/2000/svg"
 width="865.000000pt" height="870.000000pt" viewBox="0 0 865.000000 870.000000"
 preserveAspectRatio="xMidYMid meet">

<g transform="translate(0.000000,870.000000) scale(0.100000,-0.100000)"
fill="#ffffff" stroke="none">
<path d="M4140 8030 c0 -6 16 -18 35 -27 l35 -17 0 -242 0 -242 -40 -16 c-75
-30 -48 -36 164 -36 l203 0 7 71 c3 40 4 74 2 77 -13 12 -37 -12 -61 -58 l-25
-50 -70 0 -70 0 0 198 c0 108 3 221 7 251 5 49 9 55 40 67 61 26 38 34 -97 34
-81 0 -130 -4 -130 -10z"/>
<path d="M3678 7993 c-10 -2 -18 -7 -18 -10 0 -3 -29 -134 -65 -291 -63 -276
-67 -287 -98 -313 -54 -45 -30 -47 126 -8 47 12 48 35 2 43 -24 5 -35 12 -34
24 0 25 25 162 30 166 2 1 42 10 89 19 97 20 90 24 144 -75 l36 -66 -32 -26
c-18 -14 -29 -28 -25 -32 6 -7 190 11 230 23 27 7 16 24 -23 37 -31 10 -49 36
-185 263 -82 139 -152 252 -155 252 -3 -1 -13 -3 -22 -6z m46 -221 c25 -45 46
-86 46 -91 0 -7 -103 -31 -134 -31 -5 0 -5 17 -1 38 13 73 37 173 40 170 2 -2
24 -41 49 -86z"/>
<path d="M5041 7903 c-159 -56 -233 -321 -130 -463 57 -79 180 -130 313 -130
l54 0 21 62 c26 76 26 78 2 78 -12 0 -34 -20 -56 -50 -32 -43 -41 -50 -71 -50
-81 0 -175 84 -194 172 -20 97 25 240 92 291 62 47 149 56 244 26 29 -9 32
-13 38 -71 5 -54 16 -77 37 -78 6 0 39 111 39 133 0 16 -115 72 -180 86 -64
15 -158 12 -209 -6z"/>
<path d="M3055 7811 c-118 -42 -285 -117 -282 -126 2 -5 22 -11 44 -13 l40 -3
95 -222 96 -222 -30 -31 c-16 -18 -25 -34 -20 -38 5 -3 56 15 112 39 229 102
269 132 277 209 7 60 -1 89 -37 124 -35 35 -82 46 -140 33 l-43 -9 35 28 c38
31 68 84 68 120 0 44 -32 92 -74 111 -51 23 -78 23 -141 0z m45 -56 c62 -32
83 -134 39 -181 -30 -33 -79 -58 -89 -47 -20 19 -90 197 -81 206 8 8 78 36 94
37 4 0 21 -7 37 -15z m128 -261 c49 -34 66 -109 37 -163 -12 -24 -102 -80
-109 -69 -3 4 -22 48 -62 141 l-34 78 33 14 c43 19 107 19 135 -1z"/>
<path d="M5664 7687 c-79 -30 -150 -105 -186 -199 -29 -73 -29 -179 -1 -233
68 -129 247 -194 376 -137 114 51 199 174 205 299 4 63 1 77 -24 123 -64 118
-251 192 -370 147z m202 -58 c94 -45 117 -158 56 -281 -42 -87 -92 -142 -157
-174 -84 -40 -146 -21 -186 58 -69 136 73 418 210 418 19 0 54 -9 77 -21z"/>
<path d="M2443 7509 c-66 -26 -155 -106 -184 -165 -63 -132 18 -336 164 -408
191 -96 428 77 403 293 -7 63 -49 160 -90 209 -71 83 -191 112 -293 71z m114
-70 c122 -59 221 -287 169 -388 -36 -68 -121 -90 -203 -50 -56 27 -139 119
-175 194 -53 114 -31 198 67 249 41 22 91 20 142 -5z"/>
<path d="M6286 7401 c-4 -5 1 -25 10 -44 l16 -34 -153 -185 c-148 -179 -154
-185 -181 -176 -15 5 -37 8 -50 6 -19 -2 -7 -14 65 -66 64 -46 89 -58 93 -48
3 8 -1 28 -10 44 l-15 30 116 148 c64 81 118 143 120 138 2 -5 -26 -109 -61
-232 -35 -122 -59 -225 -55 -228 5 -3 103 36 217 86 114 51 214 95 222 98 19
7 -35 -54 -157 -180 -91 -93 -95 -96 -124 -86 -16 5 -37 7 -46 4 -13 -5 1 -24
67 -91 78 -79 110 -100 110 -75 0 6 -7 22 -16 36 -12 17 -14 31 -8 44 5 11 81
92 168 180 l159 160 39 -12 c21 -6 41 -8 45 -4 8 8 -116 136 -132 136 -5 0
-98 -40 -205 -89 -107 -49 -196 -88 -197 -87 -1 1 21 76 48 166 27 91 56 186
64 212 l14 47 -67 48 c-87 63 -90 65 -96 54z"/>
<path d="M1795 6990 c-49 -49 -86 -93 -82 -97 4 -4 24 -1 44 6 l36 13 170
-170 171 -171 -17 -37 c-10 -20 -14 -41 -10 -45 5 -5 75 58 156 139 l147 147
-47 58 c-39 48 -49 55 -60 44 -11 -11 -11 -20 2 -56 8 -24 15 -51 15 -59 0 -9
-23 -40 -52 -69 l-51 -52 -172 177 -172 177 14 32 c32 77 15 71 -92 -37z"/>
<path d="M6962 6747 l3 -45 -185 -145 -185 -145 -33 20 c-61 38 -53 5 24 -92
41 -52 79 -97 85 -99 7 -2 8 11 4 41 l-7 44 75 57 75 56 38 -49 c58 -75 104
-103 178 -108 48 -2 68 1 94 17 71 45 92 134 51 218 -24 50 -188 265 -207 271
-10 3 -12 -7 -10 -41z m131 -166 c52 -74 27 -155 -60 -193 -59 -26 -100 -17
-149 33 -21 21 -36 40 -33 42 36 32 203 157 207 157 4 0 19 -18 35 -39z"/>
<path d="M4061 6770 c-520 -51 -958 -256 -1321 -620 -340 -341 -563 -775 -655
-1275 -26 -141 -31 -441 -10 -605 93 -739 573 -1413 1245 -1750 265 -133 532
-205 837 -225 l93 -6 -5 93 c-9 156 -16 218 -25 223 -5 3 -84 14 -177 25 -270
31 -510 81 -528 110 -8 13 -15 13 155 -10 80 -10 232 -25 338 -32 170 -10 194
-10 208 3 13 14 14 69 7 467 -7 381 -10 454 -23 466 -10 10 -58 18 -145 26
-313 27 -608 92 -855 188 l-75 30 -8 -22 c-10 -23 -1 -646 9 -708 4 -22 2 -38
-4 -38 -11 0 -48 166 -68 310 -8 58 -17 193 -20 300 -3 107 -7 197 -10 201 -2
4 -41 28 -87 53 -69 38 -233 147 -301 201 -48 37 3 17 178 -71 104 -52 197
-94 207 -94 11 0 19 7 19 18 0 53 34 297 60 423 32 161 100 401 154 552 20 54
36 106 36 115 0 12 -25 30 -77 56 -127 62 -268 161 -358 253 -47 47 -85 89
-85 94 0 17 27 9 50 -16 30 -32 147 -112 230 -158 78 -42 251 -117 273 -117 9
0 28 29 48 73 128 279 312 589 474 794 l45 58 -79 27 c-112 37 -211 92 -265
145 -69 70 -79 124 -12 65 83 -73 202 -119 393 -153 172 -31 470 -31 637 -1
283 52 446 145 446 255 0 133 -139 221 -415 262 -126 19 -410 27 -534 15z"/>
<path d="M1511 6674 c-160 -171 -181 -326 -61 -457 27 -30 77 -69 112 -88 54
-29 73 -34 133 -34 85 0 131 20 196 86 41 42 107 152 123 205 5 17 -6 29 -60
68 -65 47 -66 47 -59 85 3 22 2 41 -3 45 -5 3 -41 -39 -80 -94 -89 -122 -94
-142 -23 -99 l34 21 56 -39 c30 -22 57 -45 59 -52 2 -6 -18 -34 -45 -60 -99
-100 -226 -92 -351 22 -104 97 -110 229 -13 339 l31 36 58 -13 c54 -13 82 -8
82 15 0 7 -104 90 -114 90 -2 0 -36 -34 -75 -76z"/>
<path d="M5166 6563 c21 -49 11 -107 -29 -174 l-32 -54 115 -76 c166 -108 300
-220 439 -364 72 -76 127 -125 134 -122 40 15 61 236 32 333 -31 106 -175 238
-393 362 -86 49 -261 132 -277 132 -2 0 3 -17 11 -37z"/>
<path d="M4966 6235 c-22 -13 -76 -35 -120 -50 -45 -14 -87 -28 -93 -30 -8 -3
17 -44 65 -107 151 -198 260 -373 379 -612 36 -72 67 -133 69 -135 7 -8 114
48 199 103 89 58 201 157 210 186 12 37 -52 129 -209 303 -120 133 -406 368
-446 366 -8 -1 -33 -11 -54 -24z"/>
<path d="M3892 6047 c-85 -113 -186 -271 -271 -424 -70 -127 -191 -389 -191
-415 0 -60 736 -166 781 -112 14 17 14 21 29 534 6 195 13 381 16 412 l6 56
-43 6 c-24 3 -85 10 -136 16 -51 6 -99 13 -107 16 -9 3 -38 -27 -84 -89z"/>
<path d="M4540 6119 c-41 -4 -109 -11 -151 -14 l-75 -6 3 -82 c2 -45 7 -267
11 -493 6 -321 11 -415 21 -428 17 -20 57 -20 208 -1 214 28 501 99 545 134
20 17 20 17 -13 101 -108 276 -410 803 -457 799 -10 -1 -51 -5 -92 -10z"/>
<path d="M6767 6113 c-7 -12 87 -173 101 -173 7 0 12 14 12 39 l0 39 63 7
c109 12 113 10 159 -76 l42 -76 -59 -66 c-56 -62 -61 -66 -80 -52 -63 47 -65
33 -13 -92 49 -119 68 -138 68 -71 0 42 4 47 200 253 197 208 212 228 181 256
-3 3 -141 -2 -306 -12 l-299 -19 -26 25 c-27 26 -36 30 -43 18z m553 -66 c0
-1 -33 -36 -74 -76 l-74 -74 -31 61 c-17 34 -31 66 -31 71 0 9 44 14 163 19
26 1 47 1 47 -1z"/>
<path d="M5995 5978 c10 -40 -14 -187 -45 -268 -16 -41 -31 -84 -34 -96 -4
-14 11 -48 54 -114 115 -180 213 -398 283 -627 18 -62 36 -115 39 -118 3 -3
23 34 46 83 95 205 110 348 53 512 -45 131 -117 277 -191 390 -62 94 -162 223
-195 250 -15 12 -16 11 -10 -12z"/>
<path d="M1086 5951 c-3 -4 -19 -46 -36 -91 -35 -95 -29 -121 17 -71 l28 32
150 -52 c83 -28 154 -55 158 -59 7 -6 -108 -49 -430 -161 -29 -10 -35 -19 -60
-95 -15 -46 -24 -86 -21 -90 4 -3 20 9 36 27 l30 33 198 -63 c273 -87 262 -82
266 -127 5 -64 24 -50 53 38 16 46 30 89 33 96 7 21 -21 13 -49 -14 l-27 -26
-191 63 c-142 47 -186 66 -174 73 22 12 514 176 529 176 17 0 29 41 15 49 -5
4 -121 47 -256 95 l-245 89 0 43 c0 40 -11 57 -24 35z"/>
<path d="M7319 5615 c-224 -82 -277 -241 -159 -474 20 -40 36 -61 44 -58 8 3
34 8 58 12 55 8 73 19 65 37 -3 10 -27 17 -68 22 -68 7 -73 11 -90 71 -25 92
11 190 89 239 81 51 200 71 269 45 62 -23 132 -119 146 -199 6 -33 4 -37 -43
-69 -32 -21 -50 -41 -50 -53 0 -22 12 -22 102 3 l38 10 0 57 c-1 161 -75 304
-185 353 -48 22 -162 24 -216 4z"/>
<path d="M5701 5384 c-89 -77 -157 -123 -271 -184 -59 -31 -86 -51 -88 -66 -2
-11 13 -63 33 -115 80 -208 182 -621 201 -811 10 -101 16 -106 92 -67 117 61
404 289 443 353 10 17 19 49 19 72 0 81 -104 406 -196 608 -60 135 -134 268
-149 272 -5 1 -43 -26 -84 -62z"/>
<path d="M831 5084 c-12 -109 -9 -134 15 -99 43 65 20 61 232 38 105 -12 203
-27 218 -35 46 -22 69 -63 69 -121 0 -72 -19 -112 -63 -133 -34 -16 -50 -16
-187 -5 -282 23 -261 18 -274 62 -7 22 -18 39 -25 39 -10 0 -15 -29 -20 -117
-4 -65 -10 -126 -12 -135 -10 -33 22 -19 39 17 20 41 7 40 242 20 117 -10 181
-11 206 -5 85 23 130 93 137 211 5 89 -8 136 -50 184 -41 47 -89 62 -287 85
-95 11 -177 23 -181 25 -4 3 -11 21 -14 40 -4 19 -13 35 -20 35 -9 0 -17 -31
-25 -106z"/>
<path d="M3366 5065 c-24 -57 -103 -305 -125 -390 -63 -252 -134 -687 -114
-706 16 -15 250 -81 393 -109 182 -37 367 -59 533 -62 117 -3 130 -1 143 16
12 16 14 101 17 490 3 643 4 614 -14 632 -11 10 -52 18 -138 25 -204 16 -447
64 -605 119 -33 11 -63 20 -67 20 -5 0 -15 -16 -23 -35z"/>
<path d="M5055 5054 c-121 -37 -306 -72 -445 -85 -219 -19 -230 -20 -245 -35
-13 -13 -15 -89 -15 -562 0 -303 4 -553 9 -561 7 -11 30 -13 117 -8 270 17
590 82 829 168 118 43 122 51 106 183 -27 220 -102 547 -188 814 -41 130 -35
127 -168 86z"/>
<path d="M7653 5053 c-43 -3 -53 -7 -53 -22 0 -14 15 -22 64 -35 l63 -18 6
-61 c3 -34 5 -63 4 -64 -3 -3 -413 -33 -451 -33 -34 0 -39 3 -57 45 -27 62
-43 59 -36 -7 4 -29 9 -97 13 -150 5 -69 11 -98 20 -98 7 0 15 17 19 38 3 20
9 42 13 49 6 9 378 43 470 43 20 0 22 -4 22 -63 l0 -63 -55 -27 c-93 -46 -67
-68 60 -50 l48 6 -6 141 c-3 78 -11 194 -18 259 l-12 117 -31 -2 c-17 -1 -55
-3 -83 -5z"/>
<path d="M6501 4840 c-26 -95 -35 -118 -92 -231 l-58 -116 1 -289 c1 -221 -3
-311 -15 -384 -8 -52 -14 -96 -12 -98 6 -6 81 160 109 240 33 96 71 258 87
368 14 96 15 429 1 505 l-9 50 -12 -45z"/>
<path d="M6145 4269 c-68 -72 -277 -215 -454 -310 -81 -44 -84 -52 -92 -281
-9 -264 -36 -434 -105 -666 l-7 -24 53 27 c168 85 372 228 487 341 81 79 133
173 155 279 16 76 18 622 3 648 -10 16 -14 15 -40 -14z"/>
<path d="M5320 3804 c-253 -84 -656 -154 -891 -154 -94 0 -86 36 -98 -484 -7
-279 -7 -464 -2 -469 11 -11 202 6 365 34 148 25 349 76 485 124 144 50 174
66 189 98 18 38 48 188 61 307 16 139 25 489 14 530 -12 45 -27 46 -123 14z"/>
<path d="M1089 3740 c-9 -48 -13 -142 -13 -260 1 -167 4 -195 28 -285 45 -173
127 -312 233 -400 26 -22 97 -87 157 -145 60 -58 107 -100 104 -95 -3 6 -22
82 -42 170 -54 244 -67 278 -226 590 -81 160 -162 328 -180 375 -17 47 -35 94
-40 105 -5 15 -11 0 -21 -55z"/>
<path d="M7462 3736 c-29 -85 -133 -305 -241 -505 -115 -214 -119 -226 -196
-561 -9 -36 -18 -76 -21 -90 -5 -20 11 -8 72 51 44 42 114 108 157 146 157
140 236 287 272 508 23 142 15 461 -14 511 -3 6 -17 -21 -29 -60z"/>
<path d="M6910 3184 c-131 -203 -185 -322 -260 -578 -106 -367 -171 -514 -273
-623 -17 -18 -28 -35 -26 -37 3 -3 27 2 54 10 28 8 124 31 214 50 343 74 439
121 621 304 159 159 268 329 331 513 47 136 50 174 8 92 -88 -170 -209 -278
-494 -440 -171 -98 -255 -156 -359 -249 -91 -82 -156 -132 -156 -122 0 4 34
46 75 94 89 103 154 222 190 348 13 49 40 197 59 329 19 132 45 277 59 323 13
45 23 82 22 82 -2 0 -31 -43 -65 -96z"/>
<path d="M1625 3229 c20 -55 50 -221 75 -409 29 -216 53 -308 115 -435 39 -81
73 -133 129 -197 42 -49 73 -88 70 -88 -12 0 -71 47 -149 119 -104 96 -170
142 -351 247 -295 171 -412 275 -504 449 -29 56 -31 57 -25 23 28 -175 167
-425 332 -598 192 -202 295 -258 591 -320 151 -32 287 -65 318 -77 9 -3 -5 22
-33 58 -102 130 -145 229 -239 541 -80 270 -101 326 -169 456 -51 95 -161 272
-170 272 -2 0 2 -18 10 -41z"/>
<path d="M5890 3068 c-63 -44 -187 -115 -275 -159 -91 -45 -170 -91 -183 -107
-13 -15 -37 -54 -54 -87 -17 -33 -50 -90 -74 -127 -24 -38 -41 -68 -38 -68 17
0 192 112 293 188 113 84 354 314 420 400 18 23 31 42 29 41 -1 0 -55 -37
-118 -81z"/>
<path d="M5279 2765 c-3 -2 -75 -22 -160 -45 -205 -53 -413 -87 -617 -101 -92
-7 -170 -15 -174 -18 -9 -7 -31 -301 -24 -308 7 -7 261 16 361 33 114 19 289
65 398 105 79 28 87 34 120 83 37 56 109 195 121 234 5 15 3 22 -7 22 -7 0
-16 -2 -18 -5z"/>
<path d="M6399 2488 c-106 -74 -193 -146 -427 -355 -114 -101 -238 -205 -275
-230 -98 -65 -223 -118 -377 -157 -141 -36 -143 -40 -24 -50 33 -3 168 -32
300 -65 349 -86 406 -95 629 -95 174 -1 199 2 297 26 295 75 532 224 685 432
68 92 71 104 13 54 -156 -136 -517 -238 -847 -238 -131 0 -291 -16 -489 -50
-248 -42 -282 -40 -113 6 122 33 240 91 307 150 65 57 119 136 251 369 57 99
114 197 127 218 13 20 23 37 21 37 -2 0 -37 -23 -78 -52z"/>
<path d="M2134 2493 c13 -21 70 -119 126 -218 57 -99 126 -213 153 -254 89
-129 202 -202 396 -256 56 -16 101 -32 101 -37 0 -5 -8 -7 -17 -4 -34 9 -319
55 -408 65 -49 5 -162 13 -250 16 -414 16 -710 99 -884 249 l-36 31 19 -30
c157 -253 463 -447 801 -511 72 -13 126 -15 265 -11 204 6 272 17 595 98 132
33 275 63 318 66 43 3 74 9 70 13 -4 4 -35 13 -68 19 -97 21 -244 71 -320 108
-95 48 -179 112 -385 298 -224 202 -466 395 -495 395 -3 0 6 -17 19 -37z"/>
<path d="M3735 1713 c-194 -25 -370 -77 -672 -198 -130 -53 -270 -105 -311
-115 -240 -63 -532 -41 -742 56 l-75 35 45 -46 c97 -100 314 -219 483 -265
211 -58 482 -38 705 50 97 39 215 106 411 233 181 118 267 156 367 164 73 6
165 -3 163 -15 0 -4 -63 -38 -139 -75 -159 -78 -361 -208 -505 -325 -131 -106
-201 -169 -195 -174 3 -3 38 -31 78 -62 l73 -58 56 64 c187 211 441 409 685
534 l112 57 92 -47 c227 -115 408 -250 611 -452 l152 -152 73 55 c40 29 74 58
76 63 4 12 -194 179 -318 267 -124 89 -280 183 -422 255 -117 59 -115 65 22
67 132 1 221 -34 420 -168 276 -186 431 -258 639 -297 109 -21 312 -21 406 0
139 30 318 106 436 187 54 36 175 144 154 137 -5 -2 -41 -19 -79 -37 -169 -80
-395 -108 -609 -76 -131 20 -162 30 -421 134 -383 154 -547 198 -782 208 -119
5 -162 2 -278 -17 -148 -24 -216 -24 -361 4 -73 14 -272 19 -350 9z"/>
</g>
</svg>
